<svg width="72" height="72" viewBox="0 0 72 72" fill="none" xmlns="http://www.w3.org/2000/svg">
<path d="M71.246 0H0V71.246H71.246V0Z" transform="translate(0.370361 0.370422)" fill="#3A4FA2"/>
<path d="M72 72H0V0H72V72ZM0.740768 71.246H71.246V0.740768H0.740768V71.246Z" fill="#3A4FA2"/>
<path d="M5.00018 10.3178C4.2991 10.3178 3.6377 10.1988 3.02921 9.96068C2.42072 9.72258 1.8916 9.37865 1.44185 8.94213C0.992101 8.49238 0.634945 7.96326 0.383613 7.32831C0.132281 6.69337 -4.03687e-07 5.97905 -4.03687e-07 5.18537C-4.03687e-07 4.41815 0.132281 3.71707 0.383613 3.08212C0.634945 2.44718 0.992101 1.90483 1.44185 1.44185C1.8916 0.978872 2.42072 0.634944 3.02921 0.383612C3.6377 0.13228 4.28587 8.07373e-07 5.00018 8.07373e-07C5.3838 8.07373e-07 5.78064 0.039684 6.1907 0.119052C6.60077 0.19842 7.01084 0.317473 7.43413 0.462981L7.07698 1.34925C6.66691 1.21697 6.30975 1.12438 5.97905 1.07147C5.64836 1.01856 5.31766 0.992101 5.00018 0.992101C4.52398 0.992101 4.07422 1.0847 3.6377 1.25666C3.20118 1.42862 2.83079 1.69318 2.50009 2.03711C2.16939 2.38104 1.90483 2.81756 1.71964 3.34668C1.52122 3.8758 1.42862 4.48429 1.42862 5.18537C1.42862 5.80709 1.52122 6.3759 1.71964 6.87856C1.91806 7.38122 2.16939 7.83098 2.50009 8.18813C2.83079 8.55852 3.2144 8.8363 3.6377 9.03472C4.07422 9.23314 4.52398 9.32574 5.00018 9.32574C5.31766 9.32574 5.64836 9.28606 5.99228 9.20669C6.33621 9.12732 6.69337 8.98181 7.07698 8.79662L7.43413 9.69612C6.99761 9.921 6.58754 10.093 6.17747 10.1856C5.78063 10.2782 5.3838 10.3178 5.00018 10.3178Z" transform="translate(19.7363 50.8749)" fill="white"/>
<path d="M0 0.833365C0 0.595261 0.0793684 0.396841 0.238104 0.238105C0.39684 0.0793688 0.59526 -1.61475e-06 0.833364 -1.61475e-06C1.07147 -1.61475e-06 1.26989 0.0793688 1.42862 0.238105C1.58736 0.396841 1.66673 0.595261 1.66673 0.833365C1.66673 1.07147 1.58736 1.26989 1.42862 1.4154C1.26989 1.57413 1.07147 1.6535 0.833364 1.6535C0.59526 1.6535 0.39684 1.57413 0.238104 1.4154C0.0793684 1.25666 0 1.07147 0 0.833365ZM0.171964 10.0004V2.8837H1.49476V10.0004H0.171964Z" transform="translate(28.3081 51.0336)" fill="white"/>
<path d="M0.965643 0.0925968C1.11115 0.251333 1.21698 0.410067 1.26989 0.595259C1.33603 0.780451 1.37571 0.978871 1.42862 1.19052V1.44185L1.53445 1.19052C1.71964 0.846591 1.97097 0.555575 2.30167 0.330699C2.63237 0.105823 2.98953 -8.07373e-07 3.35991 -8.07373e-07C3.5451 -8.07373e-07 3.76998 0.0396856 4.03454 0.105826L3.8758 1.17729C3.73029 1.13761 3.59802 1.11115 3.49219 1.11115C3.38637 1.09792 3.29377 1.09793 3.2144 1.09793C3.00275 1.09793 2.79111 1.13761 2.57946 1.23021C2.36781 1.3228 2.18262 1.45508 2.01066 1.64027C1.85192 1.82546 1.70641 2.06357 1.60059 2.35459C1.49476 2.6456 1.44185 3.00276 1.44185 3.41283V7.20926H0.211648V2.50009C0.211648 2.07679 0.19842 1.6535 0.158736 1.21698C0.119052 0.780453 0.0661408 0.410069 8.07373e-07 0.0925968H0.965643Z" transform="translate(31.4961 53.8247)" fill="white"/>
<path d="M4.37847 6.81242C4.15359 6.97116 3.91549 7.09021 3.67739 7.16958C3.43928 7.24894 3.2144 7.30186 3.00276 7.31508C2.59269 7.35477 2.19585 7.28863 1.83869 7.12989C1.48154 6.97116 1.16406 6.73305 0.886276 6.40235C0.608488 6.08488 0.396841 5.68804 0.238105 5.23829C0.0793688 4.77531 -1.61475e-06 4.27264 -1.61475e-06 3.71707C-1.61475e-06 3.16149 0.0925944 2.6456 0.264558 2.19585C0.44975 1.73287 0.701084 1.34926 1.01856 1.01856C1.34926 0.687855 1.73287 0.436526 2.16939 0.264562C2.61915 0.0793696 3.10858 1.61475e-06 3.6377 1.61475e-06C4.02131 1.61475e-06 4.40492 0.039684 4.78854 0.105824C5.17215 0.171964 5.59545 0.291016 6.07165 0.436524V10.5559H4.81499V1.13761C4.60335 1.08469 4.40493 1.04501 4.21973 1.01856C4.03454 0.992099 3.83612 0.978873 3.62447 0.978873C2.93662 0.978873 2.38104 1.21698 1.97097 1.67996C1.56091 2.14294 1.33603 2.83079 1.33603 3.71707C1.33603 4.10068 1.37571 4.45784 1.45508 4.80176C1.53445 5.13246 1.6535 5.42348 1.81224 5.64836C1.97097 5.88646 2.16939 6.05842 2.4075 6.17747C2.6456 6.29653 2.92339 6.33621 3.24086 6.29653C3.43928 6.2833 3.6377 6.30976 3.82289 6.3759C4.03454 6.45526 4.2065 6.60077 4.37847 6.81242Z" transform="translate(35.6892 53.7982)" fill="white"/>
<path d="M1.25666 10.4237H1.61475e-06V8.07373e-07H1.25666V10.4237Z" transform="translate(43.5466 50.6103)" fill="white"/>
<path d="M3.18795 8.99504C3.78321 8.99504 4.25942 8.8363 4.6298 8.53206C5.00018 8.22781 5.18538 7.83097 5.18538 7.34154C5.18538 6.9447 5.06632 6.62723 4.82822 6.3759C4.59012 6.12456 4.28587 5.91292 3.92872 5.74095C3.57156 5.56899 3.17472 5.39702 2.76465 5.23829C2.34136 5.07955 1.95774 4.88113 1.60059 4.65626C1.24343 4.43138 0.939186 4.15359 0.701082 3.80966C0.462978 3.46574 0.343929 3.02921 0.343929 2.48686C0.343929 2.09002 0.423296 1.7461 0.59526 1.44185C0.753996 1.13761 0.978871 0.873046 1.24343 0.661398C1.50799 0.44975 1.81224 0.291017 2.16939 0.171965C2.51332 0.0529128 2.87048 -1.61475e-06 3.24086 -1.61475e-06C3.62447 -1.61475e-06 3.99485 0.0529128 4.33878 0.171965C4.68271 0.291017 4.98696 0.44975 5.25152 0.661398C5.51608 0.873046 5.72772 1.12438 5.87323 1.44185C6.03197 1.7461 6.11134 2.10325 6.11134 2.48686C6.11134 2.93662 5.99228 3.34668 5.75418 3.7303C5.51608 4.11391 5.22506 4.49752 4.88113 4.88113C5.09278 5.00019 5.2912 5.13246 5.47639 5.2912C5.66158 5.43671 5.83355 5.6219 5.96583 5.80709C6.09811 6.00551 6.21716 6.23039 6.29653 6.48172C6.3759 6.73305 6.41558 7.02407 6.41558 7.34154C6.41558 7.76483 6.32298 8.13522 6.15102 8.46592C5.97906 8.79662 5.74095 9.07441 5.43671 9.29928C5.13246 9.52416 4.78853 9.69612 4.40492 9.80195C4.02131 9.921 3.61124 9.97391 3.17472 9.97391C2.7382 9.97391 2.32813 9.921 1.93129 9.80195C1.53445 9.68289 1.20375 9.52416 0.92596 9.29928C0.634944 9.07441 0.410067 8.79662 0.251331 8.46592C0.0925952 8.13522 0 7.76483 0 7.34154C0 7.1828 0.0132272 7.02407 0.0529112 6.86533C0.0793672 6.7066 0.14551 6.52141 0.224878 6.33621C0.304246 6.15102 0.423295 5.9526 0.582031 5.72772C0.727539 5.51608 0.925958 5.27797 1.16406 5.01341C1.3228 5.23829 1.42863 5.47639 1.48154 5.74095C1.54768 6.00551 1.50799 6.25684 1.37571 6.49495C1.24343 6.74628 1.17729 6.97116 1.17729 7.16958C1.17729 7.44736 1.2302 7.71192 1.3228 7.9368C1.42862 8.16167 1.56091 8.34687 1.7461 8.5056C1.93129 8.66434 2.12971 8.78339 2.38104 8.86276C2.6456 8.95535 2.91016 8.99504 3.18795 8.99504ZM1.58736 2.50009C1.58736 2.76465 1.6535 2.98953 1.78578 3.17472C1.91806 3.35991 2.09002 3.53188 2.3149 3.67738C2.53978 3.82289 2.79111 3.95517 3.0689 4.07422C3.34669 4.19328 3.6377 4.31233 3.94194 4.44461C4.23296 4.16682 4.47106 3.8758 4.64303 3.61124C4.81499 3.33346 4.90759 3.02921 4.90759 2.67206C4.90759 2.39427 4.85468 2.15616 4.76208 1.94452C4.66948 1.73287 4.5372 1.5609 4.37847 1.42862C4.21973 1.29634 4.03454 1.19052 3.83612 1.12438C3.6377 1.05824 3.43928 1.01856 3.24086 1.01856C3.02921 1.01856 2.83079 1.05824 2.63237 1.12438C2.43395 1.19052 2.26199 1.28312 2.10325 1.4154C1.95774 1.53445 1.82546 1.69318 1.73287 1.87838C1.62704 2.05034 1.58736 2.26199 1.58736 2.50009Z" transform="translate(46.4304 51.232)" fill="white"/>
<path d="M17.6991 36.0463C15.1857 36.0463 12.8576 35.6362 10.7147 34.8029C8.55852 33.9695 6.69337 32.779 5.09278 31.2313C3.49219 29.6836 2.24876 27.8053 1.34926 25.5962C0.449752 23.3871 4.03687e-07 20.9002 4.03687e-07 18.1224C4.03687e-07 15.4371 0.449752 12.9899 1.34926 10.7676C2.24876 8.54529 3.49219 6.64046 5.09278 5.03987C6.69337 3.43928 8.55852 2.20908 10.7147 1.3228C12.8708 0.449752 15.199 -4.03687e-07 17.6991 -4.03687e-07C19.0615 -4.03687e-07 20.4769 0.13228 21.932 0.39684C23.3871 0.6614 24.8554 1.07147 26.3502 1.60059L25.0803 4.69594C23.6517 4.24619 22.3421 3.92872 21.1648 3.7303C19.9875 3.53188 18.8367 3.43928 17.6991 3.43928C16.0059 3.43928 14.3921 3.74352 12.8576 4.35201C11.3232 4.9605 9.97391 5.87323 8.79662 7.09021C7.61933 8.30718 6.69337 9.8284 6.00551 11.6671C5.31766 13.5058 4.97373 15.6355 4.97373 18.0694C4.97373 20.2388 5.31766 22.223 6.00551 23.9956C6.69337 25.7681 7.61933 27.3026 8.79662 28.5725C9.97391 29.8556 11.3232 30.8345 12.8576 31.5223C14.3921 32.2102 16.0059 32.5541 17.6991 32.5541C18.8367 32.5541 20.014 32.4086 21.2177 32.1176C22.4215 31.8266 23.7046 31.3504 25.0803 30.6757L26.3502 33.7975C24.8157 34.5912 23.3342 35.16 21.9056 35.504C20.4637 35.8743 19.0748 36.0463 17.6991 36.0463Z" transform="translate(19.7495 9.81519)" fill="white"/>
<path d="M3.33346 9.28606C3.9684 9.28606 4.47106 9.12732 4.85468 8.80985C5.23829 8.49237 5.43671 8.08231 5.43671 7.57964C5.43671 7.16958 5.30443 6.83888 5.0531 6.58754C4.80176 6.33621 4.48429 6.11134 4.11391 5.92614C3.7303 5.74095 3.32023 5.56899 2.88371 5.39702C2.43395 5.22506 2.02388 5.02664 1.6535 4.80176C1.26989 4.56366 0.965642 4.27264 0.71431 3.92872C0.462978 3.57156 0.330699 3.12181 0.330699 2.56623C0.330699 2.15617 0.423295 1.79901 0.595259 1.48154C0.767223 1.16406 0.992101 0.899503 1.28312 0.674627C1.5609 0.462979 1.8916 0.291017 2.26199 0.171965C2.63237 0.0529128 3.00276 4.03687e-07 3.3996 4.03687e-07C3.80966 4.03687e-07 4.19327 0.0529128 4.56366 0.171965C4.93404 0.291017 5.25152 0.462979 5.52931 0.674627C5.80709 0.886275 6.01874 1.16406 6.19071 1.48154C6.34944 1.79901 6.44204 2.15617 6.44204 2.56623C6.44204 3.02921 6.30976 3.46574 6.05843 3.84935C5.80709 4.24619 5.50285 4.64303 5.14569 5.03987C5.37057 5.15892 5.58222 5.30443 5.78064 5.46316C5.97906 5.6219 6.15102 5.79387 6.29653 6.00551C6.44204 6.20393 6.56109 6.44204 6.64046 6.7066C6.71982 6.97116 6.77274 7.26217 6.77274 7.59287C6.77274 8.0294 6.68014 8.41301 6.49495 8.75694C6.30976 9.10086 6.05842 9.39188 5.74095 9.61676C5.42348 9.85486 5.06632 10.0268 4.65626 10.1459C4.24619 10.2649 3.80966 10.3178 3.35991 10.3178C2.89693 10.3178 2.46041 10.2649 2.05034 10.1459C1.64027 10.0268 1.28311 9.85486 0.97887 9.61676C0.674626 9.37865 0.436523 9.10086 0.264559 8.75694C0.0925952 8.41301 -8.07373e-07 8.0294 -8.07373e-07 7.59287C-8.07373e-07 7.43414 0.0132264 7.26217 0.0529104 7.09021C0.0925944 6.91824 0.14551 6.73305 0.238106 6.54786C0.330702 6.34944 0.449752 6.13779 0.608488 5.92614C0.767224 5.70127 0.978874 5.46316 1.23021 5.18538C1.38894 5.41025 1.50799 5.66159 1.57413 5.93937C1.64027 6.21716 1.60059 6.48172 1.46831 6.71982C1.33603 6.98438 1.26989 7.22249 1.26989 7.42091C1.26989 7.71192 1.3228 7.97648 1.42863 8.21459C1.53445 8.45269 1.67996 8.65111 1.86515 8.80985C2.05034 8.96858 2.27522 9.10086 2.53978 9.18023C2.76465 9.24637 3.04244 9.28606 3.33346 9.28606ZM1.64027 2.553C1.64027 2.83079 1.70641 3.0689 1.85192 3.25409C1.99743 3.45251 2.18262 3.62447 2.4075 3.76998C2.6456 3.91549 2.91016 4.061 3.20118 4.18005C3.49219 4.2991 3.80966 4.41815 4.12714 4.56366C4.43138 4.27264 4.68271 3.98163 4.86791 3.69061C5.0531 3.3996 5.14569 3.08212 5.14569 2.72497C5.14569 2.43395 5.09278 2.19585 4.98696 1.97097C4.88113 1.75933 4.74885 1.57413 4.57689 1.44185C4.40492 1.29635 4.21973 1.19052 4.00809 1.12438C3.79644 1.05824 3.58479 1.01856 3.37314 1.01856C3.14826 1.01856 2.93662 1.05824 2.72497 1.12438C2.51332 1.19052 2.32813 1.29634 2.16939 1.42862C2.01065 1.5609 1.87837 1.71964 1.77255 1.91806C1.69318 2.10325 1.64027 2.3149 1.64027 2.553Z" transform="translate(45.8879 32.8451)" fill="white"/>
<path d="M2.53978 0H3.2144V3.70384H3.83612V4.25942H3.2144V5.47639H2.53978V1.20375L2.553 0.9921L2.43395 1.19052L0.753996 3.61124L0.674628 3.69061L0.79368 3.67738H1.50799C1.61382 3.67738 1.70641 3.70384 1.78578 3.74352C1.86515 3.78321 1.94452 3.83612 2.01066 3.90226C2.0768 3.9684 2.12971 4.02131 2.16939 4.08745C2.20908 4.15359 2.24876 4.2065 2.26199 4.24619H5.04608e-08V3.76998L2.53978 0Z" transform="translate(3.45239 4.36588)" fill="white"/>
<path d="M3.2144 1.38894C3.2144 1.60059 3.17472 1.79901 3.09535 2.01066C3.01598 2.20908 2.91016 2.4075 2.77788 2.60592C2.6456 2.80434 2.50009 2.98953 2.32813 3.18795C2.16939 3.37314 1.99743 3.57156 1.83869 3.74352C1.67996 3.92872 1.52122 4.11391 1.36248 4.28587C1.21698 4.47106 1.0847 4.64303 0.978872 4.80176L0.85982 4.93404L1.03178 4.90759H3.307V5.5293H-2.01843e-07V5.23829C0.251332 4.81499 0.52912 4.43138 0.820136 4.08745C1.11115 3.74352 1.37571 3.41282 1.61382 3.12181C1.85192 2.81756 2.06357 2.53978 2.2223 2.27522C2.38104 2.01066 2.46041 1.7461 2.46041 1.49476C2.46041 1.34926 2.43395 1.21698 2.38104 1.11115C2.32813 0.9921 2.24876 0.899504 2.15616 0.820136C2.06357 0.740768 1.95774 0.674628 1.83869 0.634944C1.71964 0.59526 1.58736 0.568804 1.45508 0.568804C1.30957 0.568804 1.15084 0.582032 0.9921 0.621716C0.820136 0.6614 0.634944 0.72754 0.423296 0.846592L0.224876 0.317472C0.46298 0.185192 0.687856 0.105824 0.899504 0.06614C1.11115 0.026456 1.3228 0 1.53445 0C1.77255 0 1.9842 0.0264561 2.19585 0.0925961C2.4075 0.158736 2.57946 0.251332 2.72497 0.370384C2.87048 0.489436 2.98953 0.634944 3.08212 0.806908C3.17472 0.965644 3.2144 1.17729 3.2144 1.38894Z" transform="translate(7.61938 4.29913)" fill="white"/>
</svg>
