<svg xmlns="http://www.w3.org/2000/svg" viewBox="0 0 300.27 240.62"><defs><style>.cls-1,.cls-11,.cls-15{fill:none;}.cls-1{stroke:#d0d1d3;stroke-miterlimit:22.93;stroke-width:2px;}.cls-2{fill:#334c59;}.cls-3{fill:#e9454a;}.cls-14,.cls-4{fill:#009645;}.cls-13,.cls-14,.cls-5{font-size:14.13px;font-family:OpenSans-Bold, Open Sans;font-weight:700;}.cls-12,.cls-5,.cls-9{fill:#fff;}.cls-6{fill:#8dc044;}.cls-7{fill:#27baed;}.cls-8{fill:#f9c414;}.cls-10,.cls-13{fill:#098dce;}.cls-11{stroke:#fff;stroke-width:3px;}.cls-11,.cls-12,.cls-15{stroke-miterlimit:10;}.cls-12{stroke:#098dce;}.cls-12,.cls-15{stroke-width:2px;}.cls-15{stroke:#27baed;}</style></defs><title>Asset 1</title><g id="Layer_2" data-name="Layer 2"><g id="Слой_1" data-name="Слой 1"><rect class="cls-1" x="1" y="1" width="298.27" height="238.62"/><polygon class="cls-2" points="277.79 109.44 21.79 109.44 21.79 145.97 277.79 145.97 277.79 109.44"/><path class="cls-3" d="M31.79,64h97a0,0,0,0,1,0,0V93.76a0,0,0,0,1,0,0h-97a10,10,0,0,1-10-10V74A10,10,0,0,1,31.79,64Z"/><path class="cls-4" d="M143.79,64h136a0,0,0,0,1,0,0V93.76a0,0,0,0,1,0,0h-136a10,10,0,0,1-10-10V74A10,10,0,0,1,143.79,64Z" transform="translate(413.59 157.8) rotate(180)"/><text class="cls-5" transform="translate(31.58 84.52)"><tspan xml:space="preserve">Inc.      2.15%</tspan></text><text class="cls-5" transform="translate(166.58 84.52)">Microsoft Corp</text><rect class="cls-3" x="142.31" y="68.94" width="8.26" height="8.26"/><rect class="cls-6" x="152.07" y="68.94" width="8.26" height="8.26"/><rect class="cls-7" x="142.31" y="78.95" width="8.26" height="8.26"/><rect class="cls-8" x="152.07" y="78.95" width="8.26" height="8.26"/><rect class="cls-9" x="59.68" y="78.09" width="13.51" height="2" rx="1" transform="translate(-12.66 145.52) rotate(-90)"/><rect class="cls-9" x="61.07" y="82.08" width="7.26" height="2" rx="1" transform="translate(51.71 187.57) rotate(-135)"/><rect class="cls-9" x="64.79" y="82.08" width="7.26" height="2" rx="1" transform="translate(-38.71 72.71) rotate(-45)"/><polygon class="cls-10" points="277.79 161.44 21.79 161.44 21.79 218.8 277.79 218.8 277.79 161.44"/><path class="cls-11" d="M175.05,198.11c3.85,0,4.71,7.42,9.85,7.42,8.56,0,14.39-30.11,24.7-30.11s14.44,22.69,20.63,24.75S241.57,193,249.82,193s16,5.16,16,5.16"/><text class="cls-5" transform="translate(32.07 207.3)">$574,00</text><text class="cls-5" transform="translate(47.87 182.47)">Tesla, Inc. (TSLA)</text><text class="cls-5" transform="translate(108.66 207.3)">35,4%</text><rect class="cls-9" x="90.93" y="200.18" width="13.51" height="2" rx="1" transform="translate(298.86 103.49) rotate(90)"/><rect class="cls-9" x="95.79" y="196.19" width="7.26" height="2" rx="1" transform="translate(168.55 -12.54) rotate(45)"/><rect class="cls-9" x="92.07" y="196.19" width="7.26" height="2" rx="1" transform="translate(302.81 268.96) rotate(135)"/><circle class="cls-3" cx="37.63" cy="178.13" r="5.57"/><rect class="cls-12" x="21.79" y="18.97" width="256" height="29.71"/><text class="cls-13" transform="translate(50.57 38.88)">Amazon.com, Inc. $3,8</text><text class="cls-14" transform="translate(228.57 38.88)">2.15%</text><rect class="cls-4" x="216.68" y="25.42" width="2" height="13.51" rx="1"/><rect class="cls-4" x="218.42" y="24.56" width="2" height="7.26" rx="1" transform="translate(44.33 163.41) rotate(-45)"/><rect class="cls-4" x="212.07" y="27.19" width="7.26" height="2" rx="1" transform="translate(43.24 160.78) rotate(-45)"/><circle class="cls-2" cx="37.63" cy="34.19" r="5.57"/><path class="cls-15" d="M158.79,131.79s2.39-13.51,5-13.51c4.34,0,7.3,17.69,12.52,17.69s7.32-16.62,10.46-16.92,5.75,8.56,9.93,8.56,8.1-8.26,8.1-8.26"/><line class="cls-15" x1="215.79" y1="109.44" x2="215.79" y2="145.97"/><text class="cls-5" transform="translate(30.07 133.3)">$78,50</text><text class="cls-5" transform="translate(230.07 133.3)">CSCO</text><text class="cls-14" transform="translate(99.66 133.3)">23,9%</text><rect class="cls-4" x="87.68" y="120.42" width="2" height="13.51" rx="1"/><rect class="cls-4" x="89.42" y="119.56" width="2" height="7.26" rx="1" transform="translate(-60.63 100.02) rotate(-45)"/><rect class="cls-4" x="83.07" y="122.19" width="7.26" height="2" rx="1" transform="translate(-61.72 97.39) rotate(-45)"/></g></g></svg>