<?xml version="1.0" standalone="no"?>
<!DOCTYPE svg PUBLIC "-//W3C//DTD SVG 20010904//EN"
 "http://www.w3.org/TR/2001/REC-SVG-20010904/DTD/svg10.dtd">
<svg version="1.0" xmlns="http://www.w3.org/2000/svg"
 width="960.000000pt" height="960.000000pt" viewBox="0 0 960.000000 960.000000"
 preserveAspectRatio="xMidYMid meet">
<metadata>
Created by potrace 1.11, written by Peter Selinger 2001-2013
</metadata>
<g transform="translate(0.000000,960.000000) scale(0.100000,-0.100000)"
fill="#000000" stroke="none">
<path d="M4700 9360 c-12 -16 -18 -35 -14 -41 4 -7 3 -9 -4 -5 -6 4 -24 -13
-41 -38 -21 -30 -41 -47 -61 -51 -35 -8 -60 -47 -60 -95 0 -26 -3 -30 -27 -30
-21 0 -40 -13 -78 -55 l-50 -56 -103 26 c-97 25 -105 25 -128 10 -14 -9 -22
-19 -20 -24 3 -4 -1 -8 -8 -8 -15 0 -53 -27 -120 -86 -40 -34 -45 -36 -57 -20
-12 14 -12 16 0 8 10 -5 12 -4 7 4 -4 6 -11 9 -16 6 -5 -3 -28 11 -52 32 -81
71 -80 70 -56 24 22 -39 22 -43 6 -55 -10 -7 -15 -16 -11 -19 3 -4 -3 -7 -13
-7 -11 0 -35 -11 -54 -25 -18 -13 -38 -22 -44 -18 -6 3 -8 3 -5 -1 4 -4 -4
-19 -18 -34 l-24 -26 -94 31 -95 31 5 -31 c19 -147 20 -139 -30 -194 l-45 -51
57 -53 c32 -28 49 -46 38 -38 -44 30 -192 153 -219 183 -45 48 -18 7 36 -55
26 -30 48 -60 48 -65 0 -4 -25 -45 -56 -90 -44 -66 -64 -86 -96 -99 -38 -15
-39 -17 -25 -33 15 -16 14 -20 -8 -47 -30 -37 -31 -49 -4 -35 11 7 22 10 25 8
2 -2 -32 -21 -74 -42 l-78 -38 7 -47 c4 -25 8 -55 8 -66 0 -18 -1 -18 -8 -2
-6 16 -9 16 -31 -8 -21 -22 -30 -25 -62 -20 -43 8 -42 9 -27 -49 9 -36 8 -49
-5 -74 -15 -30 -15 -31 9 -50 14 -11 25 -23 25 -28 0 -4 -12 3 -26 17 -25 24
-26 24 -40 4 -14 -18 -13 -20 8 -26 13 -3 -38 -11 -112 -18 -74 -7 -155 -15
-180 -18 -25 -4 -53 -6 -64 -6 -12 0 9 -27 65 -83 78 -78 110 -106 78 -68 -16
19 -21 47 -7 38 5 -3 7 -9 4 -12 -3 -3 0 -12 8 -21 8 -9 15 -18 15 -21 0 -3 3
-13 6 -22 4 -10 0 -31 -8 -48 -15 -29 -15 -31 6 -44 12 -8 57 -29 100 -47 42
-18 77 -37 77 -41 0 -5 -8 -4 -17 2 -31 18 -187 80 -200 80 -7 0 -13 -8 -13
-17 0 -9 -14 -45 -31 -80 -24 -50 -30 -71 -25 -98 4 -19 3 -35 -2 -35 -5 0
-35 -43 -67 -96 l-58 -95 23 -160 c12 -88 19 -163 16 -166 -3 -4 -6 5 -6 20 0
14 -4 29 -10 32 -16 10 -12 -61 4 -74 11 -9 15 -9 20 1 3 7 3 2 -1 -12 -3 -14
-20 -42 -37 -63 -30 -38 -31 -41 -28 -130 3 -87 5 -95 40 -147 45 -66 53 -84
23 -50 l-22 25 5 -35 c6 -32 3 -38 -26 -55 l-33 -19 30 -6 c21 -4 31 -12 33
-27 3 -18 -3 -22 -47 -28 -28 -4 -51 -9 -51 -11 0 -2 47 -72 103 -156 115
-170 133 -200 89 -148 l-30 34 10 -53 c8 -45 7 -56 -8 -73 -17 -18 -17 -20 11
-43 30 -24 29 -25 -12 -37 -7 -2 8 -26 36 -58 26 -30 52 -66 56 -80 7 -24 6
-24 -8 -5 -21 27 -45 6 -49 -43 l-3 -37 -83 -20 c-46 -11 -83 -24 -83 -29 0
-5 34 -20 76 -34 l75 -25 1 -158 c2 -173 2 -176 17 -293 9 -72 17 -89 46 -99
5 -2 1 -86 -9 -192 -9 -105 -17 -194 -17 -200 0 -5 28 -91 61 -190 34 -99 61
-189 61 -201 0 -12 7 -40 15 -64 8 -23 15 -71 16 -106 l2 -64 36 0 c26 0 40
-6 50 -22 13 -21 13 -21 33 10 11 18 24 32 28 32 9 0 33 -61 26 -67 -2 -2 -9
11 -16 29 l-11 33 -20 -38 -20 -38 26 -64 c14 -35 25 -72 25 -84 0 -11 5 -32
10 -46 9 -25 14 -27 55 -23 25 2 45 -1 45 -6 0 -5 -18 -32 -41 -58 l-41 -49
32 -82 c17 -45 40 -100 50 -122 10 -22 24 -57 30 -78 9 -30 16 -37 30 -32 24
8 35 -11 14 -23 -15 -9 -16 -13 -4 -42 10 -23 11 -63 7 -152 -6 -110 -5 -119
11 -113 9 3 30 9 45 12 27 5 28 4 22 -27 -3 -17 -17 -48 -30 -68 -14 -20 -25
-44 -25 -54 0 -9 -4 -20 -10 -23 -6 -3 -10 -32 -10 -64 0 -44 -6 -70 -26 -105
-24 -42 -29 -46 -62 -45 -36 1 -36 2 -8 8 l30 6 -33 28 c-18 15 -36 27 -39 27
-4 0 -33 -18 -66 -40 l-59 -40 38 0 c60 0 36 -9 -38 -14 -37 -3 -71 -8 -76
-11 -5 -3 -20 12 -33 32 l-23 38 -5 -65 c-3 -45 -9 -66 -19 -68 -8 -2 -27 -12
-42 -23 -15 -10 -32 -19 -38 -19 -18 0 -13 -12 22 -49 17 -19 -13 5 -67 55
-55 49 -97 82 -94 74 35 -98 40 -123 27 -130 -10 -7 -7 -16 12 -42 32 -41 42
-58 35 -58 -2 0 -37 44 -76 97 l-72 98 7 -67 7 -66 -47 -21 c-26 -12 -54 -21
-62 -21 -13 0 -13 -2 -2 -17 12 -14 12 -16 -1 -11 -8 3 -32 11 -53 19 l-37 13
-48 -47 c-27 -26 -57 -49 -68 -51 -90 -18 -195 -52 -247 -81 -35 -19 -71 -35
-80 -35 -9 0 -21 -10 -28 -22 -10 -19 -7 -25 32 -57 24 -19 58 -49 74 -66 54
-56 184 -165 196 -165 6 0 23 8 37 19 25 17 66 25 57 11 -2 -3 5 -11 15 -17
15 -10 20 -8 30 18 23 56 19 24 -6 -44 l-24 -68 100 77 c55 42 103 80 106 85
3 5 13 9 22 8 14 0 14 -2 2 -6 -8 -4 -46 -31 -83 -61 -67 -54 -67 -55 -45 -68
58 -34 83 -42 90 -31 12 19 9 -14 -8 -98 -9 -42 -14 -78 -12 -80 2 -2 52 39
111 91 l107 94 0 -60 c0 -57 2 -61 28 -70 49 -18 55 -25 131 -153 41 -70 76
-125 77 -124 1 1 -8 54 -21 117 -13 63 -24 124 -23 135 0 17 1 17 5 3 2 -10
13 -18 23 -18 24 0 32 -12 75 -115 21 -49 41 -94 45 -98 4 -5 59 5 121 22 62
16 115 28 117 26 2 -2 -30 -66 -71 -142 -42 -75 -75 -138 -74 -140 2 -1 35 3
75 9 76 12 77 12 97 -27 3 -6 7 -6 10 1 3 6 12 20 20 30 13 17 13 15 1 -16 -8
-22 -12 -57 -9 -97 l5 -62 103 -104 c96 -97 113 -110 238 -176 74 -39 141 -71
149 -71 9 0 72 27 141 60 68 33 132 60 141 60 9 0 16 5 16 10 0 6 4 10 10 10
5 0 7 -7 4 -15 -4 -10 0 -15 13 -15 10 0 23 -4 28 -9 6 -5 23 -11 40 -13 25
-3 31 -9 44 -50 8 -27 19 -48 24 -48 5 0 34 22 63 50 48 43 58 48 80 40 44
-17 82 -12 89 11 9 27 29 19 33 -14 2 -15 6 -27 9 -27 3 0 29 14 57 31 95 59
105 64 74 39 -16 -12 -28 -26 -28 -31 0 -5 18 -20 39 -35 32 -20 39 -30 35
-50 -2 -13 -1 -24 3 -23 13 0 93 107 109 144 14 34 14 34 -23 60 -34 23 -48
25 -143 26 -68 1 -91 4 -65 8 l40 6 -32 12 c-28 10 -35 9 -58 -9 -14 -11 -28
-18 -31 -15 -3 3 -11 64 -17 136 l-11 131 -86 1 c-47 1 -125 4 -175 8 -84 7
-86 8 -27 9 34 1 62 5 62 9 0 3 -14 28 -31 55 -27 41 -30 55 -25 88 l6 40 -30
-7 c-25 -4 -29 -3 -24 10 3 8 0 26 -6 38 l-12 22 -13 -23 c-12 -22 -13 -21 -9
20 5 50 -9 85 -25 61 -11 -17 -14 -6 -31 94 -20 121 -16 114 -53 108 -32 -5
-32 -5 -32 39 0 29 4 42 13 40 15 -3 15 1 -3 46 -13 33 -13 35 0 18 8 -11 15
-23 15 -27 0 -10 39 1 46 13 3 5 -2 19 -13 30 -10 12 16 1 62 -27 l79 -46 46
21 c26 12 56 20 68 18 15 -2 30 7 45 26 l24 29 119 -66 c65 -37 115 -67 110
-67 -5 0 -53 25 -107 55 -84 46 -102 53 -124 45 -24 -9 -36 -40 -15 -40 6 0
10 7 10 15 0 8 5 15 10 15 6 0 10 -10 10 -22 1 -25 64 -71 129 -94 48 -17 66
-17 81 1 18 21 25 19 50 -18 16 -24 31 -34 54 -35 17 -1 46 -7 64 -13 19 -6
54 -8 82 -4 42 6 51 11 56 31 3 13 13 24 21 24 8 0 11 -4 8 -10 -3 -5 1 -20
10 -33 13 -20 23 -24 63 -23 l47 1 3 42 c3 36 0 42 -20 46 -22 4 -21 4 3 6 21
1 39 -15 93 -79 37 -44 71 -80 77 -80 6 0 7 -5 4 -10 -3 -6 -1 -10 4 -10 14 0
14 3 -6 45 -9 19 -15 37 -12 39 2 2 23 6 47 10 56 7 57 8 72 60 15 53 7 96
-18 97 -10 0 -12 3 -4 6 17 7 15 27 -6 53 -16 20 -24 22 -65 16 -44 -7 -47 -9
-48 -39 l-2 -32 -6 35 c-5 28 -14 38 -44 53 -26 12 -49 36 -75 77 -20 32 -39
59 -42 59 -3 1 -28 -50 -56 -111 -29 -62 -56 -113 -60 -115 -5 -1 -36 36 -69
82 l-60 85 -164 -5 c-90 -3 -169 -9 -175 -13 -6 -4 -26 -7 -43 -7 -31 -1 -39
8 -34 38 2 11 -13 9 -64 -9 -26 -8 -56 -13 -68 -11 -19 4 -18 4 4 6 15 0 29 7
32 15 6 16 -26 50 -37 39 -3 -4 -6 2 -5 13 4 41 -1 94 -10 94 -4 0 -15 -30
-23 -67 -14 -61 -14 -69 0 -80 14 -12 14 -13 0 -13 -9 0 -18 5 -20 12 -2 6 9
77 24 157 25 128 32 150 58 175 24 25 39 30 90 34 51 4 63 8 71 26 14 32 1
-63 -21 -147 l-17 -71 21 30 c70 96 139 175 150 171 21 -8 35 7 38 42 1 18 6
35 11 38 5 3 28 -16 50 -42 l42 -46 155 -1 c86 0 176 3 202 7 38 6 55 2 103
-20 63 -30 145 -45 145 -27 0 7 7 9 17 5 11 -4 14 -3 9 5 -5 8 -2 10 8 6 9 -3
16 -1 16 6 0 6 4 9 9 6 4 -3 54 13 110 35 l101 41 42 -17 c24 -9 49 -20 57
-23 9 -3 12 -1 7 6 -4 7 -1 12 8 12 9 0 16 4 16 9 0 5 12 8 26 5 42 -8 128 14
142 36 9 15 9 22 -4 34 -19 20 -57 30 -88 24 -16 -3 -23 0 -22 10 1 12 -11 15
-59 13 -33 -1 -68 -4 -78 -7 -10 -3 -24 0 -32 6 -12 10 -15 8 -15 -11 0 -18
-3 -20 -12 -11 -7 7 -28 12 -47 12 -45 0 -117 35 -124 60 -3 11 -1 20 4 20 5
0 9 8 9 18 0 11 9 29 20 42 12 13 18 31 15 39 -3 9 -3 12 1 8 10 -10 36 31 28
45 -4 6 -3 8 3 5 6 -4 18 9 28 27 15 27 27 35 65 44 26 6 55 9 66 7 10 -2 40
-6 67 -8 l48 -4 49 68 c28 38 52 69 55 69 3 0 -18 -31 -46 -70 l-50 -70 36
-32 37 -32 -7 -81 -7 -80 39 37 c46 44 66 47 97 13 13 -14 37 -28 55 -31 26
-5 31 -3 31 12 0 14 3 15 12 6 23 -23 30 -11 26 52 -1 35 0 62 5 59 4 -2 7
-19 7 -36 0 -54 17 -66 29 -21 15 53 14 57 -10 101 l-22 38 26 -30 c25 -28 26
-29 27 -8 0 23 -33 48 -50 38 -6 -3 -10 -21 -10 -38 0 -24 -3 -28 -10 -17 -16
26 -2 83 24 103 14 10 23 23 21 30 -2 7 -9 30 -14 53 -6 23 -21 52 -34 66 -17
18 -28 52 -42 126 -10 56 -16 104 -13 107 2 3 73 8 156 12 84 3 152 7 152 7 0
1 33 74 74 162 l73 161 7 119 c3 65 9 147 12 181 6 58 8 62 28 58 11 -2 42 -7
69 -10 l47 -6 -1 53 c-2 51 -2 51 -8 14 -5 -34 -8 -37 -19 -24 -14 18 -7 68
10 68 7 0 9 32 6 87 l-5 86 59 139 c32 77 58 142 58 144 0 3 -9 0 -21 -6 -22
-12 -29 -10 -33 12 -7 35 -30 75 -53 94 -25 20 -26 23 -16 72 12 60 8 66 -52
76 -64 11 -89 25 -104 56 -15 36 -20 36 -89 10 -30 -11 -51 -16 -47 -10 3 5
11 10 16 10 5 0 39 13 75 30 58 26 65 32 53 46 -11 14 -9 15 27 10 38 -6 38
-5 -7 8 -26 7 -52 17 -59 21 -16 10 -4 96 21 152 10 23 19 49 19 58 0 36 -18
1 -50 -95 -18 -55 -35 -98 -37 -96 -3 2 9 48 26 102 17 53 31 101 31 105 0 19
-20 7 -63 -36 -41 -43 -46 -45 -71 -34 -53 24 -29 51 76 84 40 13 74 28 76 35
2 6 -9 25 -24 42 l-29 30 28 23 c16 14 27 34 27 49 0 14 5 28 10 31 6 3 10 0
10 -8 0 -22 32 -11 71 24 18 16 34 29 36 29 7 0 -6 -110 -16 -129 -11 -20 -10
-20 13 -9 14 6 23 15 19 21 -3 6 -1 7 4 4 11 -7 49 160 39 171 -3 3 -1 11 5
19 9 10 7 19 -6 39 -9 14 -14 32 -11 39 3 9 -3 15 -17 17 -19 3 -24 17 -48
136 -14 73 -23 130 -19 125 5 -4 18 -61 30 -126 22 -117 23 -118 42 -100 11
10 26 30 33 44 29 56 -32 189 -93 201 -11 2 -16 12 -15 25 2 16 -10 29 -45 52
-26 17 -92 82 -146 146 -55 63 -101 113 -102 112 -3 -2 -10 -116 -13 -193 -1
-17 -9 -23 -41 -28 -22 -3 -40 -12 -40 -19 0 -6 20 -58 44 -114 24 -57 41
-103 36 -103 -4 0 -15 20 -24 44 -9 24 -43 106 -75 181 l-58 137 -63 -103
c-35 -57 -81 -123 -103 -146 l-39 -42 -39 20 c-38 19 -55 37 -24 25 22 -8 18
2 -6 15 -15 8 -19 8 -15 0 12 -19 -8 -12 -90 30 l-79 41 48 -49 48 -50 -53
-17 c-29 -9 -72 -20 -96 -23 -35 -5 -53 -16 -104 -67 -34 -34 -55 -52 -47 -41
13 19 13 19 -4 6 -10 -8 -16 -20 -13 -27 7 -18 -16 -34 -41 -28 -13 4 -22 0
-26 -10 -3 -8 -33 -29 -67 -46 -33 -17 -60 -35 -60 -40 0 -6 16 -10 35 -10 37
0 41 -5 49 -53 3 -16 10 -35 17 -43 6 -8 8 -14 4 -14 -4 0 -2 -6 4 -14 9 -11
9 -15 0 -18 -7 -2 26 -36 74 -76 l85 -72 -9 -37 c-14 -51 -20 -64 -15 -30 2
15 2 27 1 27 -1 0 -14 -18 -29 -40 -27 -41 -33 -84 -16 -110 8 -12 10 -12 10
-1 0 8 2 12 5 9 7 -6 -23 -145 -36 -169 -7 -13 -3 -18 18 -24 54 -13 170 -86
218 -137 28 -29 39 -44 25 -33 l-25 20 19 -22 c10 -13 22 -21 26 -18 3 2 27
-17 53 -43 43 -44 50 -60 116 -255 l71 -208 -55 -139 c-68 -176 -75 -188 -86
-168 -15 27 -73 57 -84 44 -13 -15 -18 -39 -7 -32 5 3 29 -15 53 -40 36 -37
41 -46 29 -54 -20 -13 -33 -12 -24 1 4 8 0 8 -15 0 -25 -14 -28 -22 -3 -15 14
5 14 3 -3 -13 -11 -10 -26 -43 -34 -73 -7 -30 -18 -61 -24 -67 -6 -9 -5 -18 3
-28 11 -14 10 -14 -14 -6 -14 6 -40 18 -57 27 l-31 16 7 -34 c8 -39 46 -172
50 -176 2 -2 23 8 48 22 62 37 67 34 67 -27 l0 -53 118 -28 c64 -16 122 -33
127 -39 7 -7 5 -8 -7 -4 -18 6 -75 21 -123 32 -29 6 -29 5 19 -43 27 -29 45
-55 41 -61 -4 -7 -27 -10 -61 -8 -30 2 -54 3 -54 2 0 -1 7 -22 15 -45 8 -24
13 -45 10 -48 -2 -3 -7 4 -11 14 -12 39 -38 95 -45 100 -4 2 -14 -3 -22 -11
-14 -13 -18 -12 -39 13 -23 28 -24 28 -81 17 -38 -8 -60 -8 -67 -1 -7 7 -10 7
-10 0 0 -5 6 -16 13 -23 10 -10 9 -15 -5 -25 -10 -7 -18 -22 -18 -34 0 -26 77
-102 103 -102 14 0 17 -4 12 -17 -12 -31 -10 -38 8 -35 35 6 17 -26 -19 -33
-20 -3 -45 -12 -55 -18 -15 -9 -24 -9 -39 1 -27 16 -28 16 -33 -15 l-4 -28 -2
26 c-1 22 -9 29 -48 42 -73 24 -121 46 -128 57 -5 8 -13 6 -26 -6 -11 -9 -22
-14 -26 -11 -3 4 -2 50 4 104 10 89 9 102 -12 165 -12 38 -25 71 -27 73 -2 3
-20 0 -39 -6 -19 -7 -77 -11 -129 -10 l-94 2 -51 43 c-40 35 -53 41 -67 33
-22 -15 -39 1 -85 77 -62 104 -46 97 -219 95 -107 0 -154 -4 -157 -12 -8 -22
2 -222 12 -250 6 -15 7 -27 3 -27 -4 0 -13 15 -20 32 l-12 33 -27 -28 c-24
-23 -26 -29 -13 -37 11 -7 -1 -10 -39 -10 -43 0 -52 -3 -47 -15 4 -11 -1 -15
-17 -15 -22 0 -75 -55 -92 -95 -13 -31 -15 -65 -3 -65 5 0 8 -6 5 -14 -5 -13
27 -21 125 -31 39 -4 25 -14 -71 -56 -92 -40 -100 -46 -103 -73 -2 -22 -12
-35 -36 -49 l-32 -19 -15 36 c-9 20 -19 36 -23 36 -4 0 -23 -41 -41 -90 -18
-50 -39 -94 -47 -98 -7 -4 -20 -41 -29 -82 -9 -40 -18 -76 -20 -79 -7 -6 -6
-1 9 80 8 41 20 108 26 149 7 41 16 88 21 103 8 25 1 38 -57 115 l-66 87 7 63
c7 68 -1 78 -29 31 -10 -17 -21 -28 -24 -25 -3 3 8 23 24 44 42 52 43 54 54
113 9 45 8 54 -7 65 -17 13 -16 15 6 33 27 21 31 32 33 106 1 38 -6 66 -30
116 -18 37 -32 78 -32 93 0 20 -4 24 -17 19 -16 -5 15 24 81 79 20 16 19 17
-37 33 -59 17 -75 33 -86 87 l-6 26 -78 -25 c-44 -13 -81 -22 -83 -20 -3 3 22
47 55 98 33 52 78 124 100 160 48 79 58 88 124 111 29 10 60 28 70 40 143 177
141 176 198 197 60 22 94 27 84 12 -3 -6 14 -3 37 4 24 8 100 23 170 34 127
19 127 19 199 -2 l71 -21 39 41 c21 23 45 43 51 46 10 3 10 7 1 19 -7 8 -11
28 -10 44 2 28 1 29 -38 25 l-40 -3 19 21 c22 24 35 29 16 6 -10 -12 -9 -15 6
-15 28 0 42 12 49 43 6 24 5 26 -11 20 -17 -6 109 140 170 196 14 14 26 28 26
31 0 4 -31 21 -69 39 -77 35 -90 47 -85 76 6 40 -9 48 -55 29 -23 -9 -44 -14
-47 -11 -8 8 67 48 78 41 7 -5 8 -2 3 6 -6 10 -4 12 9 7 10 -4 15 -3 11 3 -3
5 8 16 25 25 16 8 30 19 30 22 0 18 -195 345 -211 353 -10 6 -29 10 -43 10
-18 0 -30 9 -41 29 -20 39 -50 48 -78 24 -19 -16 -20 -16 -8 0 19 24 9 30 -55
32 -33 1 -59 7 -64 15 -6 9 -10 8 -19 -6 -10 -17 -18 -12 -81 54 -39 41 -70
82 -70 93 0 14 -8 9 -37 -21 l-38 -40 -51 35 -51 34 10 66 c5 36 7 68 5 71 -3
2 -47 -2 -99 -10 l-94 -15 -165 37 -165 37 -13 88 -12 89 82 113 c54 73 94
119 115 129 18 8 40 30 49 48 9 18 25 42 35 53 46 51 69 150 37 161 -10 3 -18
12 -18 20 0 8 -12 26 -27 40 -22 20 -23 23 -7 15 18 -9 23 -7 27 11 8 30 4 32
-32 13 -17 -8 -31 -12 -31 -7 0 4 42 27 93 50 l92 41 -51 1 c-35 0 -54 5 -57
14 -7 19 14 36 96 81 37 21 67 39 65 40 -2 2 -34 -3 -73 -11 -68 -13 -133 -18
-107 -7 14 5 17 53 3 53 -13 0 -31 57 -31 94 0 19 12 47 30 70 17 22 30 42 30
46 0 3 -29 4 -65 2 -40 -3 -70 0 -79 7 -11 9 -22 7 -47 -8 -28 -16 -42 -18
-74 -10 l-40 8 43 -3 42 -4 0 39 c0 38 -1 39 -37 39 -21 0 -63 11 -93 23 -76
31 -74 47 23 131 66 58 121 126 102 126 -8 0 -337 -223 -388 -263 -21 -16 -40
-27 -43 -24 -5 5 455 323 482 334 8 3 14 11 14 17 0 7 16 35 35 62 19 27 35
53 35 58 0 5 -19 6 -42 2 -23 -4 -40 -5 -38 -2 6 5 196 51 253 61 20 4 37 10
37 14 0 3 5 49 10 101 6 52 11 116 12 142 0 26 4 45 9 43 4 -3 10 -1 14 5 3 5
21 17 40 25 27 13 41 14 72 6 75 -21 74 -22 122 110 25 66 48 122 52 125 4 2
-2 -19 -12 -47 -11 -28 -18 -53 -15 -56 2 -2 20 -1 40 2 l35 7 -15 30 c-9 16
-13 32 -10 36 3 3 6 0 6 -7 0 -6 25 -36 57 -66 64 -63 56 -64 147 18 l49 43
61 -32 c54 -28 73 -33 171 -38 252 -15 252 -15 259 -47 6 -30 23 -40 23 -14 0
8 -4 12 -9 9 -4 -3 -8 0 -8 7 0 7 10 9 25 6 14 -2 23 -2 21 1 -3 2 4 12 15 21
11 9 41 52 67 95 26 44 52 81 57 83 10 3 254 -194 326 -264 43 -41 44 -40 54
74 5 56 10 70 21 66 10 -4 22 12 39 51 27 60 43 79 19 21 -18 -44 -18 -45 5
-45 11 0 23 -4 26 -10 3 -5 15 -10 26 -10 18 0 20 -6 18 -55 -1 -30 1 -58 4
-62 4 -3 7 19 7 51 l0 56 50 -1 c27 -1 47 -6 44 -11 -3 -5 8 0 26 10 31 20 54
20 129 3 22 -5 41 -8 41 -7 0 2 -9 28 -19 59 -11 32 -18 57 -16 57 7 0 125
-252 125 -267 0 -7 6 -13 14 -13 15 0 98 32 128 50 14 8 27 -1 66 -42 l50 -52
147 17 c82 10 150 16 152 14 7 -7 23 -122 23 -164 0 -24 2 -43 5 -43 3 0 22
11 43 24 21 13 75 42 120 65 45 23 82 45 82 51 0 5 -18 23 -40 41 l-40 32 30
55 c16 31 29 56 27 58 -1 1 -82 36 -180 78 l-177 77 -48 -16 c-46 -16 -47 -16
-61 5 -21 31 -81 173 -76 178 2 2 -8 28 -22 56 -14 28 -26 63 -25 79 0 17 -5
27 -14 27 -8 0 -14 5 -14 10 0 6 4 10 9 10 15 0 20 38 6 44 -8 3 -19 14 -25
26 -11 21 -10 21 37 18 34 -2 48 1 47 10 -1 6 -2 19 -2 27 -1 8 -9 15 -17 15
-8 0 -15 4 -15 10 0 16 -56 40 -93 40 -18 0 -59 -5 -90 -11 -51 -11 -59 -16
-89 -60 -30 -43 -43 -51 -128 -86 -111 -45 -122 -48 -92 -31 19 12 20 15 7 29
-13 13 -10 21 24 71 29 41 36 59 28 67 -6 6 -16 11 -22 11 -21 0 -49 38 -38
52 5 7 11 31 12 54 2 36 -2 44 -32 67 -19 14 -37 24 -40 21 -10 -10 -40 102
-38 142 l2 40 -88 33 c-48 19 -111 44 -140 58 -35 16 -72 24 -116 26 -36 1
-63 5 -61 9 2 3 -19 6 -46 6 -28 1 -56 4 -63 8 -6 4 -2 -4 10 -17 18 -20 20
-28 11 -37 -16 -16 -31 -15 -22 1 5 8 2 8 -9 -2 -20 -16 -23 -25 -4 -15 8 5 8
3 -1 -7 -11 -12 -15 -11 -28 5 -12 17 -17 18 -39 8 -14 -7 -59 -12 -100 -12
l-75 0 -35 70 c-19 39 -40 70 -45 70 -5 0 -7 7 -4 15 10 24 -3 17 -26 -15z
m44 -27 c4 -11 1 -11 -14 -3 -15 8 -20 8 -20 -1 0 -7 -3 -10 -6 -6 -9 9 3 24
20 24 8 0 17 -6 20 -14z m826 -192 c0 -18 -18 -21 -30 -6 -10 13 -9 15 9 15
11 0 21 -4 21 -9z m-1408 -129 c3 -12 -1 -18 -12 -19 -9 -1 -17 5 -17 12 0 8
4 12 9 9 4 -3 8 0 8 5 0 17 7 13 12 -7z m-932 -756 c0 -2 -7 -7 -16 -10 -8 -3
-12 -2 -9 4 6 10 25 14 25 6z m3481 -213 c-8 -15 -10 -15 -11 -2 0 17 10 32
18 25 2 -3 -1 -13 -7 -23z m-4121 -297 c0 -2 -7 -7 -16 -10 -8 -3 -12 -2 -9 4
6 10 25 14 25 6z m45 -36 c1 -11 -2 -20 -7 -20 -5 0 -6 -5 -2 -12 4 -7 3 -8
-4 -4 -8 5 -8 15 -1 32 8 22 7 25 -5 21 -10 -4 -13 -1 -9 9 7 20 26 2 28 -26z
m-30 -9 c-6 -5 -25 10 -25 20 0 5 6 4 14 -3 8 -7 12 -15 11 -17z m93 -33 c-2
-7 3 -12 10 -10 8 1 11 -2 7 -8 -5 -8 -11 -8 -21 1 -7 6 -11 15 -8 20 8 13 14
11 12 -3z m305 -545 c-7 -2 -19 -2 -25 0 -7 3 -2 5 12 5 14 0 19 -2 13 -5z
m60 -10 c-7 -2 -21 -2 -30 0 -10 3 -4 5 12 5 17 0 24 -2 18 -5z m92 -13 c27
-7 27 -8 5 -8 -14 0 -38 4 -55 8 -27 7 -27 8 -5 8 14 0 39 -4 55 -8z m78 -17
c-7 -2 -21 -2 -30 0 -10 3 -4 5 12 5 17 0 24 -2 18 -5z m50 -10 c-7 -2 -19 -2
-25 0 -7 3 -2 5 12 5 14 0 19 -2 13 -5z m264 -279 c-3 -3 -12 -4 -19 -1 -8 3
-5 6 6 6 11 1 17 -2 13 -5z m18 -264 c3 -6 -1 -7 -9 -4 -18 7 -21 14 -7 14 6
0 13 -4 16 -10z m255 -764 c0 -3 -4 -8 -10 -11 -5 -3 -10 -1 -10 4 0 6 5 11
10 11 6 0 10 -2 10 -4z m-70 -40 c0 -3 -4 -8 -10 -11 -5 -3 -10 -1 -10 4 0 6
5 11 10 11 6 0 10 -2 10 -4z m-1070 -251 c0 -5 -5 -3 -10 5 -5 8 -10 20 -10
25 0 6 5 3 10 -5 5 -8 10 -19 10 -25z m2951 -12 c13 -16 12 -17 -3 -4 -10 7
-18 15 -18 17 0 8 8 3 21 -13z m779 -307 c0 -3 -15 -14 -32 -26 l-33 -22 30
26 c31 27 35 29 35 22z m-200 -126 c-8 -5 -19 -10 -25 -10 -5 0 -3 5 5 10 8 5
20 10 25 10 6 0 3 -5 -5 -10z m-953 -192 c-3 -8 -6 -5 -6 6 -1 11 2 17 5 13 3
-3 4 -12 1 -19z m-10 -40 c-3 -8 -6 -5 -6 6 -1 11 2 17 5 13 3 -3 4 -12 1 -19z
m-2267 -1143 c0 -5 -5 -3 -10 5 -5 8 -10 20 -10 25 0 6 5 3 10 -5 5 -8 10 -19
10 -25z m20 -50 c0 -5 -5 -3 -10 5 -5 8 -10 20 -10 25 0 6 5 3 10 -5 5 -8 10
-19 10 -25z m30 -80 c0 -5 -5 -3 -10 5 -5 8 -10 20 -10 25 0 6 5 3 10 -5 5 -8
10 -19 10 -25z m1170 -495 c0 -5 -8 -10 -17 -10 -15 0 -16 2 -3 10 19 12 20
12 20 0z m-526 -300 c6 -8 -4 -2 -22 14 -18 17 -32 36 -32 44 0 13 20 -8 54
-58z m836 40 c17 0 -69 -60 -87 -60 -7 0 -17 -8 -22 -17 -10 -17 -10 -17 -11
0 0 19 -44 25 -55 7 -3 -5 -11 -10 -16 -10 -6 0 -7 6 -2 12 4 7 8 20 8 28 4
43 6 49 23 52 9 2 46 0 82 -4 36 -4 72 -7 80 -8z m-390 -353 c0 -13 -55 -40
-105 -51 l-30 -7 25 21 c14 11 40 25 58 32 17 7 32 16 32 21 0 4 5 5 10 2 6
-3 10 -12 10 -18z m-1137 -54 c-7 -2 -21 -2 -30 0 -10 3 -4 5 12 5 17 0 24 -2
18 -5z m1389 -19 c33 -8 70 -25 83 -37 12 -12 31 -27 41 -33 11 -7 16 -15 13
-18 -4 -4 -14 0 -22 9 -19 18 -31 4 -22 -25 8 -24 11 -24 -55 -1 -49 17 -56
18 -86 4 -29 -14 -34 -23 -44 -80 -7 -35 -14 -62 -17 -59 -2 2 0 30 6 62 9 45
8 60 -1 66 -10 7 -9 8 2 7 20 -3 50 11 50 22 0 11 -49 1 -68 -14 -10 -8 -12
-5 -8 14 5 20 -1 29 -34 51 -22 15 -40 32 -40 38 0 16 135 12 202 -6z m850 -2
c-7 -2 -12 -11 -12 -19 0 -9 -3 -14 -6 -10 -10 10 7 48 19 40 8 -5 8 -8 -1
-11z m-2495 -174 c-2 -18 -4 -6 -4 27 0 33 2 48 4 33 2 -15 2 -42 0 -60z
m-336 -119 c27 -12 48 -23 46 -25 -2 -3 -28 7 -58 20 -66 31 -57 34 12 5z
m-161 -366 c0 -5 -5 -15 -10 -23 -8 -12 -10 -13 -10 -1 0 10 -8 7 -25 -9 -14
-13 -25 -20 -25 -16 0 10 51 56 61 56 5 0 9 -3 9 -7z m157 -65 c-3 -8 -6 -5
-6 6 -1 11 2 17 5 13 3 -3 4 -12 1 -19z m-10 -50 c-3 -8 -6 -5 -6 6 -1 11 2
17 5 13 3 -3 4 -12 1 -19z m333 -32 c0 -26 -6 -18 -14 19 -5 22 -4 26 4 15 5
-8 10 -24 10 -34z m-343 -8 c-3 -8 -6 -5 -6 6 -1 11 2 17 5 13 3 -3 4 -12 1
-19z m371 -133 c0 -11 -6 3 -13 30 -7 28 -13 59 -13 70 0 11 6 -2 13 -30 7
-27 13 -59 13 -70z m2296 90 c3 -8 1 -15 -4 -15 -6 0 -10 7 -10 15 0 8 2 15 4
15 2 0 6 -7 10 -15z m93 9 c-3 -3 -12 -4 -19 -1 -8 3 -5 6 6 6 11 1 17 -2 13
-5z m-282 -84 c-11 -5 -27 -9 -35 -9 -9 0 -8 4 5 9 11 5 27 9 35 9 9 0 8 -4
-5 -9z m-851 -352 c6 -5 1 -8 -11 -8 -18 0 -23 6 -23 28 1 25 1 26 12 7 6 -11
16 -23 22 -27z m636 -503 c0 -2 -15 -12 -32 -20 l-33 -16 25 20 c24 20 40 26
40 16z"/>
<path d="M4492 9137 c-9 -11 -10 -17 -2 -22 15 -9 23 -1 18 21 -3 15 -4 16
-16 1z"/>
<path d="M3759 8943 c-13 -16 -12 -17 4 -4 16 13 21 21 13 21 -2 0 -10 -8 -17
-17z"/>
<path d="M5883 8891 c-11 -17 -7 -25 27 -63 29 -31 39 -38 40 -25 0 10 -7 29
-16 42 -9 14 -13 33 -9 45 9 27 -25 28 -42 1z"/>
<path d="M5797 8863 c-33 -10 -47 -18 -44 -28 3 -7 -3 -15 -14 -18 -26 -7 -24
-23 6 -43 23 -15 26 -15 53 7 30 26 66 86 54 92 -4 3 -29 -2 -55 -10z"/>
<path d="M6245 8471 c3 -6 -1 -11 -10 -11 -9 0 -13 -5 -10 -10 5 -8 12 -7 23
2 9 7 6 0 -6 -16 -17 -22 -19 -32 -11 -42 16 -20 24 -17 37 11 17 36 15 48 -9
63 -12 8 -18 9 -14 3z"/>
<path d="M5020 8258 c0 -9 -4 -20 -10 -23 -6 -4 -7 1 -3 12 10 29 -11 4 -42
-50 l-28 -49 29 4 c24 2 30 9 35 38 l6 35 2 -37 c1 -36 1 -36 32 -28 18 5 34
12 37 15 6 6 -11 40 -38 75 -15 19 -20 21 -20 8z"/>
<path d="M5071 8219 c15 -19 35 -36 45 -38 16 -3 15 1 -6 24 -14 15 -34 32
-45 38 -17 9 -16 5 6 -24z"/>
<path d="M6460 7959 c0 -5 5 -7 10 -4 6 3 10 8 10 11 0 2 -4 4 -10 4 -5 0 -10
-5 -10 -11z"/>
<path d="M6398 7953 c7 -3 16 -2 19 1 4 3 -2 6 -13 5 -11 0 -14 -3 -6 -6z"/>
<path d="M6300 7940 c-12 -8 -12 -10 4 -16 10 -4 21 -2 25 3 3 6 15 13 26 16
14 3 11 5 -10 6 -16 0 -37 -3 -45 -9z"/>
<path d="M6725 7868 c-22 -11 -42 -22 -44 -24 -2 -2 24 -31 57 -65 34 -33 62
-65 62 -71 0 -6 6 -8 14 -5 10 4 13 -1 11 -18 -1 -14 2 -22 7 -19 5 3 17 -1
26 -8 9 -8 24 -18 32 -22 8 -4 7 -1 -4 8 -10 8 -16 22 -13 31 8 20 -2 47 -16
38 -6 -3 -7 -1 -3 5 4 7 4 18 -1 25 -4 6 -8 14 -8 17 0 21 -52 109 -62 106 -6
-3 -13 1 -15 9 -2 10 -12 9 -43 -7z"/>
<path d="M5957 7165 c-37 -36 -76 -65 -87 -65 -13 0 -26 -12 -37 -34 -21 -45
-33 -50 -198 -89 l-140 -33 58 -34 c42 -25 57 -41 57 -57 0 -18 9 -23 56 -33
30 -7 54 -14 51 -16 -2 -2 -48 5 -102 16 -54 11 -99 19 -101 18 -1 -2 35 -53
81 -113 47 -61 84 -113 85 -117 0 -4 -15 1 -32 12 -49 30 -58 26 -58 -25 0
-25 3 -45 7 -45 4 0 18 10 32 22 14 13 6 2 -18 -24 l-43 -46 7 -62 7 -62 110
-106 c76 -74 119 -124 138 -162 l28 -55 -30 -1 c-16 -1 -33 -5 -38 -10 -11
-12 -20 -85 -9 -78 5 3 9 0 9 -7 0 -6 9 -1 21 12 17 20 20 21 15 5 -6 -16 -4
-17 9 -6 12 10 13 15 4 21 -20 12 5 35 67 63 40 18 52 29 48 41 -9 24 12 42
51 43 44 2 90 33 72 51 -8 8 0 11 35 11 l46 0 -13 38 c-21 64 -25 91 -15 97
17 11 11 43 -9 50 -42 13 -43 31 -3 58 31 20 39 31 39 55 0 26 47 113 128 236
19 29 19 29 -40 -10 -33 -21 -102 -67 -153 -102 -52 -35 -95 -62 -97 -60 -2 2
45 78 105 168 60 91 109 168 110 173 0 4 -22 7 -49 7 -58 0 -81 7 -81 25 0 25
-20 27 -51 5 -16 -12 -32 -20 -35 -17 -3 2 11 15 31 27 30 18 35 27 30 44 -4
11 -7 32 -7 46 0 14 -7 33 -15 42 -12 14 -14 31 -8 83 3 36 5 65 3 65 -2 -1
-33 -30 -71 -65z"/>
<path d="M3397 7113 c-4 -3 -7 -15 -7 -26 0 -19 1 -19 20 -2 11 10 17 22 14
26 -6 11 -18 12 -27 2z"/>
<path d="M5746 7092 c-3 -5 8 -21 23 -36 l29 -28 12 23 c11 19 10 24 -6 36
-20 15 -50 17 -58 5z"/>
<path d="M5713 7063 c-3 -10 -8 -21 -10 -25 -2 -5 15 -8 38 -8 l42 0 -23 25
c-28 30 -38 31 -47 8z"/>
<path d="M5685 7010 c-7 -12 12 -12 40 0 18 8 17 9 -7 9 -15 1 -30 -3 -33 -9z"/>
<path d="M5188 6938 c-35 -9 -118 -84 -118 -106 0 -16 122 23 132 42 9 16 29
78 25 75 -1 -1 -19 -6 -39 -11z"/>
<path d="M5240 6910 l-21 -40 43 6 c24 4 51 11 61 16 9 5 21 7 25 4 4 -2 9 5
9 17 3 27 -13 37 -59 37 -34 0 -40 -4 -58 -40z"/>
<path d="M6083 6689 c-72 -108 -72 -107 -38 -85 106 68 105 68 105 100 0 65
-15 62 -67 -15z"/>
<path d="M2480 6679 c0 -5 5 -7 10 -4 6 3 10 8 10 11 0 2 -4 4 -10 4 -5 0 -10
-5 -10 -11z"/>
<path d="M5602 6674 c2 -9 14 -24 28 -33 l25 -16 -23 33 c-26 35 -35 40 -30
16z"/>
<path d="M6119 6431 l-24 -20 27 -1 c29 0 46 16 31 31 -6 6 -19 2 -34 -10z"/>
<path d="M3310 5875 c0 -38 7 -41 69 -29 l32 7 -43 28 c-24 16 -46 29 -50 29
-5 0 -8 -16 -8 -35z"/>
<path d="M3366 5831 c-13 -5 6 -12 64 -25 45 -9 84 -15 87 -12 3 2 -13 14 -36
25 -41 21 -81 26 -115 12z"/>
<path d="M5730 5621 c0 -5 -18 -11 -40 -15 -45 -7 -48 -14 -21 -47 l19 -24 25
23 c20 19 35 72 21 72 -2 0 -4 -4 -4 -9z"/>
<path d="M6366 5593 c-6 -14 -5 -15 5 -6 7 7 10 15 7 18 -3 3 -9 -2 -12 -12z"/>
<path d="M2600 5577 c0 -27 13 -36 26 -16 3 6 -1 18 -10 27 -15 15 -16 14 -16
-11z"/>
<path d="M4100 5510 c0 -12 26 -31 33 -23 12 11 7 21 -13 26 -11 3 -20 2 -20
-3z"/>
<path d="M5175 5370 c3 -5 8 -10 11 -10 2 0 4 5 4 10 0 6 -5 10 -11 10 -5 0
-7 -4 -4 -10z"/>
<path d="M6450 5057 l-11 -62 -72 -45 -72 -45 40 -6 c22 -4 76 -10 120 -14 73
-6 82 -5 108 15 35 27 34 37 -6 81 -17 20 -33 42 -35 49 -2 7 -12 24 -23 38
-10 14 -19 31 -19 38 0 8 -4 14 -9 14 -5 0 -14 -28 -21 -63z"/>
<path d="M5183 4991 c2 -23 7 -44 9 -46 3 -3 22 1 42 8 l38 13 -33 25 c-61 46
-62 46 -56 0z"/>
<path d="M5223 4939 c-30 -9 -32 -12 -26 -42 3 -17 7 -33 8 -35 2 -2 17 17 35
42 17 25 27 46 23 45 -4 0 -22 -5 -40 -10z"/>
<path d="M6325 4880 c-14 -22 15 -34 95 -39 74 -6 100 -1 100 20 0 4 -30 10
-67 13 -38 4 -80 9 -95 12 -14 3 -29 0 -33 -6z"/>
<path d="M6580 4870 c19 -13 30 -13 30 0 0 6 -10 10 -22 10 -19 0 -20 -2 -8
-10z"/>
<path d="M6552 4844 c4 -22 53 -43 68 -28 15 15 -3 33 -39 40 -29 6 -33 4 -29
-12z"/>
<path d="M2615 4780 c-3 -6 1 -7 9 -4 18 7 21 14 7 14 -6 0 -13 -4 -16 -10z"/>
<path d="M5380 4477 c0 -16 46 -54 55 -45 3 2 -9 17 -25 33 -23 22 -30 25 -30
12z"/>
<path d="M3925 4282 c-51 -20 -48 -17 -40 -41 l6 -21 40 23 c42 23 71 58 47
56 -7 -1 -31 -8 -53 -17z"/>
<path d="M3847 4233 c-4 -3 -7 -11 -7 -17 0 -6 5 -5 12 2 6 6 9 14 7 17 -3 3
-9 2 -12 -2z"/>
<path d="M2700 4096 c0 -8 4 -17 9 -20 5 -4 7 3 4 14 -6 23 -13 26 -13 6z"/>
<path d="M3508 3883 c-33 -37 -129 -196 -116 -191 7 3 44 15 82 28 l69 22 -7
67 c-4 36 -7 72 -8 79 -2 15 -2 15 -20 -5z"/>
<path d="M4391 3682 c-29 -33 -34 -65 -7 -43 7 6 15 8 18 5 6 -5 58 57 58 69
0 17 -42 -2 -69 -31z"/>
<path d="M4467 3706 c-7 -19 0 -25 24 -19 10 3 19 12 19 19 0 18 -36 18 -43 0z"/>
<path d="M4310 3625 c-10 -13 -9 -15 8 -15 15 0 20 5 16 15 -4 8 -7 15 -9 15
-1 0 -8 -7 -15 -15z"/>
<path d="M6324 3615 c-3 -8 -4 -20 -2 -27 3 -7 7 -1 10 15 6 29 1 36 -8 12z"/>
<path d="M5485 3579 c-9 -14 40 -61 60 -57 10 2 5 13 -19 36 -23 22 -37 29
-41 21z"/>
<path d="M4254 3510 c-24 -31 -31 -50 -33 -95 -1 -31 2 -55 8 -55 15 0 69 83
63 99 -3 9 0 11 8 6 8 -5 11 -4 7 2 -4 6 -2 25 3 43 5 18 7 30 3 26 -3 -3 -11
-2 -18 4 -8 6 -21 -3 -41 -30z"/>
<path d="M2960 3466 c0 -37 14 -39 45 -6 l29 30 -37 0 c-33 0 -37 -3 -37 -24z"/>
<path d="M3630 3150 c0 -5 5 -10 10 -10 6 0 10 5 10 10 0 6 -4 10 -10 10 -5 0
-10 -4 -10 -10z"/>
<path d="M5085 3048 c11 -66 21 -68 27 -3 2 32 -1 40 -16 43 -16 3 -17 -1 -11
-40z"/>
<path d="M5124 3055 c-9 -37 2 -41 14 -6 7 18 7 31 2 31 -5 0 -12 -11 -16 -25z"/>
<path d="M5145 3038 c-9 -24 -20 -49 -23 -57 -4 -10 2 -9 26 3 17 9 40 16 52
16 27 0 26 31 -3 58 -13 12 -26 22 -29 22 -3 0 -14 -19 -23 -42z"/>
<path d="M5898 2942 c-88 -5 -69 -19 35 -27 107 -8 167 0 167 22 0 15 -12 15
-202 5z"/>
<path d="M3840 2866 c0 -2 7 -6 15 -10 8 -3 15 -1 15 4 0 6 -7 10 -15 10 -8 0
-15 -2 -15 -4z"/>
<path d="M3890 2855 c0 -8 5 -15 10 -15 6 0 10 7 10 15 0 8 -4 15 -10 15 -5 0
-10 -7 -10 -15z"/>
<path d="M5098 2802 c-2 -18 -1 -35 4 -38 14 -9 21 25 11 49 -9 21 -10 20 -15
-11z"/>
<path d="M5920 2555 c-10 -12 -9 -16 6 -21 11 -4 22 -9 25 -10 3 -2 4 8 1 21
-5 29 -14 31 -32 10z"/>
<path d="M3094 2519 c-3 -6 -1 -16 5 -22 8 -8 11 -5 11 11 0 24 -5 28 -16 11z"/>
<path d="M3070 2501 c0 -6 4 -13 10 -16 6 -3 7 1 4 9 -7 18 -14 21 -14 7z"/>
<path d="M3022 2462 l-24 -18 36 -28 36 -27 17 35 c19 40 18 42 -17 50 -16 4
-33 0 -48 -12z"/>
<path d="M4432 2097 c-3 -37 10 -49 42 -37 18 6 17 9 -10 39 l-30 33 -2 -35z"/>
<path d="M1513 1918 c-50 -25 -56 -43 -29 -80 15 -21 23 -25 37 -18 10 6 29
10 42 10 20 0 26 6 29 32 4 21 -1 41 -11 55 -19 27 -16 27 -68 1z"/>
<path d="M1440 1835 c0 -8 4 -15 9 -15 5 0 11 7 15 15 3 9 0 15 -9 15 -8 0
-15 -7 -15 -15z"/>
<path d="M4699 1573 c17 -30 41 -57 45 -52 9 10 26 49 26 58 0 6 -18 11 -40
11 -36 0 -40 -2 -31 -17z"/>
<path d="M5170 1546 c0 -9 5 -16 10 -16 6 0 10 4 10 9 0 6 -4 13 -10 16 -5 3
-10 -1 -10 -9z"/>
<path d="M5190 1460 c0 -26 4 -30 26 -30 22 0 25 2 14 15 -7 8 -9 15 -5 15 4
0 2 7 -5 15 -19 23 -30 18 -30 -15z"/>
<path d="M2518 1445 c-10 -21 -9 -29 5 -43 16 -15 17 -14 17 26 0 48 -6 53
-22 17z"/>
<path d="M2490 1445 c-7 -9 -8 -15 -2 -15 5 0 12 7 16 15 3 8 4 15 2 15 -2 0
-9 -7 -16 -15z"/>
<path d="M5200 1412 c0 -15 11 -21 27 -15 12 5 12 7 1 14 -17 11 -28 11 -28 1z"/>
<path d="M4455 1400 c-3 -5 -1 -10 4 -10 6 0 11 5 11 10 0 6 -2 10 -4 10 -3 0
-8 -4 -11 -10z"/>
<path d="M5180 1396 c0 -9 5 -16 10 -16 6 0 10 4 10 9 0 6 -4 13 -10 16 -5 3
-10 -1 -10 -9z"/>
<path d="M4925 1370 c-9 -15 4 -30 26 -30 17 0 18 3 9 20 -12 22 -25 26 -35
10z"/>
<path d="M3055 1148 c-40 -14 -39 -13 -24 -47 17 -39 28 -35 57 17 25 45 21
49 -33 30z"/>
<path d="M2108 911 l-117 -66 -30 -72 c-16 -40 -28 -73 -25 -73 3 0 27 11 54
25 27 14 53 25 57 25 4 -1 -8 -10 -29 -20 l-36 -20 5 -57 c4 -48 0 -70 -25
-133 -40 -101 -36 -138 29 -233 l51 -74 -21 -87 c-12 -48 -19 -91 -16 -96 12
-19 119 -23 764 -27 l683 -4 -58 70 c-33 38 -62 70 -66 70 -12 2 -117 76 -118
84 0 4 -35 54 -78 110 -43 56 -100 132 -126 170 -26 37 -51 67 -55 67 -4 0
-17 -20 -29 -45 -12 -25 -26 -45 -32 -45 -6 0 -33 11 -60 25 -27 14 -59 25
-70 25 -12 0 -19 4 -15 9 3 5 0 13 -6 17 -6 3 -15 0 -20 -7 -5 -8 -3 -17 4
-21 8 -5 3 -8 -11 -8 -20 0 -21 3 -12 20 16 30 3 42 -43 38 -37 -3 -42 -1 -42
19 0 11 -4 25 -8 29 -4 5 -5 1 -1 -9 3 -9 4 -17 1 -17 -3 0 -56 59 -117 130
-61 72 -113 130 -115 130 -1 0 -22 -7 -46 -15 -39 -14 -44 -14 -52 0 -4 9 -28
25 -53 36 l-45 21 27 35 c14 19 24 35 23 37 -2 1 -57 -27 -121 -63z m879 -406
c9 -19 20 -32 25 -29 4 3 8 -2 8 -10 0 -21 -26 -21 -34 0 -3 8 -11 12 -17 8
-8 -4 -9 -3 -5 5 4 6 12 8 18 5 6 -4 8 -3 5 3 -7 11 -36 11 -54 0 -9 -6 -10 0
-2 23 14 40 35 38 56 -5z"/>
<path d="M5130 779 c-28 -38 -54 -77 -57 -85 -3 -8 -9 -14 -15 -14 -5 0 -6 5
-2 12 4 7 3 8 -4 4 -7 -4 -20 -3 -29 3 -14 7 -24 4 -42 -12 l-24 -22 7 30 6
30 -18 -31 c-9 -17 -26 -47 -36 -67 -11 -20 -23 -37 -28 -37 -4 0 -22 -13 -39
-29 -26 -26 -30 -35 -25 -63 6 -30 6 -31 -6 -12 -7 12 -19 19 -26 17 -7 -3
-24 2 -37 11 -14 9 -25 15 -26 14 0 -2 -2 -10 -4 -20 -5 -25 -24 -56 -25 -39
0 17 -59 -58 -60 -75 0 -23 31 -24 40 -1 14 34 11 8 -5 -53 -8 -30 -15 -59
-15 -63 0 -9 107 0 163 14 30 8 37 14 32 28 -4 13 4 22 30 34 20 9 44 17 55
17 10 0 20 8 22 18 3 11 21 -12 52 -65 26 -46 51 -85 55 -87 4 -3 27 8 51 23
86 53 140 83 140 77 0 -3 -20 -17 -45 -32 -25 -14 -43 -29 -40 -34 6 -10 75
-21 87 -14 5 3 5 11 -1 18 -7 9 -2 17 19 30 37 21 44 64 8 45 -13 -6 -18 -7
-13 -2 17 17 165 103 176 103 6 0 8 7 5 16 -3 9 -6 38 -6 66 0 42 -5 54 -30
79 -16 16 -32 45 -36 65 -8 41 -36 64 -81 64 -28 0 -38 8 -73 55 -22 30 -42
55 -45 55 -2 0 -26 -32 -55 -71z"/>
<path d="M4390 625 c0 -9 5 -15 11 -13 6 2 11 8 11 13 0 5 -5 11 -11 13 -6 2
-11 -4 -11 -13z"/>
<path d="M4538 603 c12 -2 32 -2 45 0 12 2 2 4 -23 4 -25 0 -35 -2 -22 -4z"/>
<path d="M5356 385 c-11 -8 -16 -15 -10 -15 5 0 18 7 28 15 11 8 16 15 10 15
-5 0 -18 -7 -28 -15z"/>
<path d="M4790 259 c0 -5 5 -7 10 -4 6 3 10 8 10 11 0 2 -4 4 -10 4 -5 0 -10
-5 -10 -11z"/>
<path d="M4810 227 c0 -8 7 -18 16 -21 11 -4 14 -1 12 11 -4 21 -28 30 -28 10z"/>
</g>
</svg>
